# AST/ASF file generated using VICON BodyLanguage
# -----------------------------------------------
:version 1.10
:name VICON
:units
  mass 1.0
  length 0.45
  angle deg
:documentation
   .ast/.asf automatically generated from VICON data using
   VICON BodyBuilder and BodyLanguage model FoxedUp or BRILLIANT.MOD
:root
   order TX TY TZ RX RY RZ
   axis XYZ
   position 0 0 0  
   orientation 0 0 0 
:bonedata
  begin
     id 1 
     name lhipjoint
     direction 0.650112 -0.723553 0.232005 
     length 2.45805 
     axis 0 0 0  XYZ
  end
  begin
     id 2 
     name lfemur
     direction 0.34202 -0.939693 0  
     length 7.00073  
     axis 0 0 20  XYZ
    dof rx ry rz
    limits (-160.0 20.0)
           (-70.0 70.0)
           (-60.0 70.0)
  end
  begin
     id 3 
     name ltibia
     direction 0.34202 -0.939693 0   
     length 7.8748   
     axis 0 0 20   XYZ
    dof rx
    limits (-10.0 170.0)
  end
  begin
     id 4 
     name lfoot
     direction 0.0542825 -0.14914 0.987325   
     length 1.75978   
     axis -90 7.62852e-016 20   XYZ
    dof rx rz
    limits (-45.0 90.0)
           (-70.0 20.0)
  end
  begin
     id 5 
     name ltoes
     direction 1.53509e-011 -4.21906e-011 1   
     length 0.893912   
     axis -90 7.62852e-016 20   XYZ
    dof rx
    limits (-90.0 20.0)
  end
  begin
     id 6 
     name rhipjoint
     direction -0.637897 -0.733345 0.235145   
     length 2.42522  
     axis 0 0 0  XYZ 
  end
  begin
     id 7 
     name rfemur
     direction -0.34202 -0.939693 0   
     length 7.02549   
     axis 0 0 -20   XYZ
    dof rx ry rz
    limits (-160.0 20.0)
           (-70.0 70.0)
           (-70.0 60.0)
  end
  begin
     id 8 
     name rtibia
     direction -0.34202 -0.939693 0   
     length 7.71512   
     axis 0 0 -20   XYZ
    dof rx
    limits (-10.0 170.0)
 end
 begin
     id 9 
     name rfoot
     direction -0.0822618 -0.226012 0.970645   
     length 1.90014  
     axis -90 -7.62852e-016 -20   XYZ
    dof rx rz
    limits (-45.0 90.0)
           (-20.0 70.0)
  end
  begin
     id 10 
     name rtoes
     direction -1.53542e-011 -4.21872e-011 1   
     length 0.957341   
     axis -90 -7.62852e-016 -20   XYZ
    dof rx
    limits (-90.0 20.0)
  end
  begin
     id 11 
     name lowerback
     direction -0.0022947 0.999774 -0.0211557   
     length 1.89909   
     axis 0 0 0   XYZ
    dof rx ry rz
    limits (-20.0 45.0)
           (-30.0 30.0)
           (-30.0 30.0)
  end
  begin
     id 12 
     name upperback
     direction 0.0107737 0.998635 0.0511027   
     length 1.8853   
     axis 0 0 0   XYZ
    dof rx ry rz
    limits (-20.0 45.0)
           (-30.0 30.0)
           (-30.0 30.0)
  end
  begin
     id 13 
     name thorax
     direction 0.011824 0.998136 0.0598754   
     length 1.88911   
     axis 0 0 0   XYZ
    dof rx ry rz
    limits (-20.0 45.0)
           (-30.0 30.0)
           (-30.0 30.0)
  end
  begin
     id 14 
     name lowerneck
     direction -0.0685355 0.990319 0.120714   
     length 1.91222   
     axis 0 0 0   XYZ
    dof rx ry rz
    limits (-20.0 45.0)
           (-30.0 30.0)
           (-30.0 30.0)
  end
  begin
     id 15 
     name upperneck
     direction 0.0886204 0.955665 -0.280805   
     length 1.92526   
     axis 0 0 0   XYZ
    dof rx ry rz
    limits (-20.0 45.0)
           (-30.0 30.0)
           (-30.0 30.0)
  end
  begin
     id 16
     name head
     direction 0.0233423 0.993502 -0.111393  
     length 1.96056  
     axis 0 0 0   XYZ
    dof rx ry rz
    limits (-20.0 45.0)
           (-30.0 30.0)
           (-30.0 30.0)
  end
  begin
     id 17 
     name lclavicle
     direction 0.941873 0.32922 0.0670041  
     length 3.31705  
     axis 0 0 0   XYZ
    dof ry rz
    limits (-20.0 10.0)
           (0.0 20.0)
  end
  begin
     id 18 
     name lhumerus
     direction 1 -4.4898e-011 3.38707e-028   
     length 5.29277   
     axis 180 -30 -90   XYZ
    dof rx ry rz
    limits (-60.0 90.0)
           (-90.0 90.0)
           (-90.0 90.0)
  end
  begin
     id 19
     name lradius
     direction 1 -4.48952e-011 1.63213e-028   
     length 2.85226   
     axis 180 -30 -90   XYZ
    dof rx
    limits (-10.0 170.0)
  end
  begin
     id 20
     name lwrist
     direction 1 -4.49001e-011 1.27856e-027   
     length 1.42613   
     axis -1.61767e-015 90 90   XYZ
    dof ry
    limits (-180.0 0.0)
 end
  begin
     id 21 
     name lhand
     direction 1 -4.48976e-011 2.55931e-027   
     length 0.602097   
     axis -1.63363e-015 90 90   XYZ
    dof rx rz
    limits (-90.0 90.0)
           (-45.0 45.0)
  end
  begin
     id 22 
     name lfingers
     direction 1 -4.48986e-011 5.11684e-027   
     length 0.485426   
     axis -3.26723e-015 90 90   XYZ
    dof rx
    limits (0.0 90.0)
  end
  begin
     id 23
     name lthumb
     direction 0.707107 -6.34915e-011 0.707107   
     length 0.696978   
     axis -90 45 -2.25915e-014   XYZ
    dof rx rz
    limits (-45.0 45.0)
           (-45.0 45.0)
  end
  begin
     id 24 
     name rclavicle
     direction -0.939974 0.327078 0.0973096   
     length 3.10337  
     axis 0 0 0   XYZ 
    dof ry rz
    limits (-10.0 20.0)
           (-20.0 0.0)
  end
  begin
     id 25 
     name rhumerus
     direction -1 -4.48975e-011 1.83745e-027  
     length 5.13304   
     axis 180 30 90   XYZ
    dof rx ry rz
    limits (-90.0 60.0)
           (-90.0 90.0)
           (-90.0 90.0)
  end
  begin
     id 26 
     name rradius
     direction -1 -4.48977e-011 7.1775e-029   
     length 2.74305   
     axis 180 30 90   XYZ
    dof rx
    limits (-10.0 170.0)
  end
  begin
     id 27 
     name rwrist
     direction -1 -4.48977e-011 1.27963e-027   
     length 1.37152   
     axis -1.61767e-015 -90 -90   XYZ
    dof ry
    limits (-180.0 0.0)
  end
  begin
     id 28
     name rhand
     direction -1 -4.4888e-011 2.56782e-027   
     length 0.767976   
     axis -1.63363e-015 -90 -90   XYZ
    dof rx rz
    limits (-90.0 90.0)
           (-45.0 45.0)
  end
  begin
     id 29
     name rfingers
     direction -1 -4.48947e-011 5.12384e-027   
     length 0.619162   
     axis -3.26723e-015 -90 -90   XYZ
    dof rx
    limits (0.0 90.0)
  end
  begin
     id 30
     name rthumb
     direction -0.707107 -6.34857e-011 0.707107   
     length 0.888997   
     axis -90 -45 2.25915e-014   XYZ
    dof rx rz
    limits (-45.0 45.0)
           (-45.0 45.0)
  end
:hierarchy
  begin
    root lhipjoint rhipjoint lowerback
    lhipjoint lfemur
    lfemur ltibia
    ltibia lfoot
    lfoot ltoes
    rhipjoint rfemur
    rfemur rtibia
    rtibia rfoot
    rfoot rtoes
    lowerback upperback
    upperback thorax
    thorax lowerneck lclavicle rclavicle
    lowerneck upperneck
    upperneck head
    lclavicle lhumerus
    lhumerus lradius
    lradius lwrist
    lwrist lhand lthumb
    lhand lfingers
    rclavicle rhumerus
    rhumerus rradius
    rradius rwrist
    rwrist rhand rthumb
    rhand rfingers
  end

#!OML:ASF F:\VICON\USERDATA\INSTALL\rory3\rory3.ASF
:FULLY-SPECIFIED
:DEGREES
1924
root -0.330653 16.385 -1.80167 29.6029 0.2229 0.998255
lowerback 17.5663 0.539599 -3.46501
upperback 0.687985 0.0537388 0.349342
thorax -9.13537 0.183073 2.33682
lowerneck -2.52407 -10.3043 -18.6023
upperneck -24.2981 -9.93236 31.6986
head -3.29786 -5.79688 14.1395
rclavicle 5.46658e-016 6.4605e-016
rhumerus 4.56363 15.4467 -90.6864
rradius 97.2676
rwrist 27.9416
rhand 17.4293 0.993987
rfingers 7.12502
rthumb 42.1332 -23.5513
lclavicle 5.46658e-016 6.4605e-016
lhumerus 14.1154 -14.3216 86.5126
lradius 92.2012
lwrist -18.0749
lhand 15.9248 36.5681
lfingers 7.12502
lthumb 40.7215 61.5724
rfemur -57.8826 2.48124 16.5201
rtibia 47.9363
rfoot -20.2271 -5.83944
rtoes -21.1129
lfemur -57.6874 -4.53967 -12.9547
ltibia 46.9873
lfoot -18.0154 2.93165
ltoes -25.8785
1925
root -0.32545 16.44 -1.75768 29.0433 0.35465 0.940188
lowerback 17.5343 0.3759 -3.42324
upperback 0.578027 -0.139698 0.497183
thorax -9.22508 0.0961523 2.52246
lowerneck -2.79829 -10.3808 -18.8449
upperneck -24.7869 -9.92371 31.7945
head -3.36432 -5.77215 14.2514
rclavicle -1.27968e-015 7.45443e-016
rhumerus 3.4245 15.4223 -90.8985
rradius 97.2488
rwrist 27.7335
rhand 17.6037 1.03078
rfingers 7.12502
rthumb 42.2965 -23.4591
lclavicle -1.27968e-015 7.45443e-016
lhumerus 12.5218 -13.863 87.1633
lradius 90.7218
lwrist -18.3419
lhand 15.5708 35.6966
lfingers 7.12502
lthumb 40.3887 60.8042
rfemur -56.507 2.64867 16.5371
rtibia 47.0357
rfoot -20.1164 -5.98232
rtoes -21.1692
lfemur -56.4547 -4.87829 -12.8309
ltibia 46.1906
lfoot -17.8448 3.02002
ltoes -25.3514
1926
root -0.318198 16.489 -1.71748 28.6571 0.402746 0.761122
lowerback 17.2392 0.286344 -3.28257
upperback 0.485268 -0.210577 0.602614
thorax -9.15649 0.0586807 2.57247
lowerneck -3.02025 -10.4812 -19.0185
upperneck -25.4203 -9.91854 31.9691
head -3.47737 -5.76729 14.4007
rclavicle -9.61621e-015 7.0817e-016
rhumerus 2.47544 15.2306 -91.057
rradius 97.3334
rwrist 27.5632
rhand 17.7278 0.795813
rfingers 7.12502
rthumb 42.4128 -23.6544
lclavicle -9.61621e-015 7.0817e-016
lhumerus 11.2217 -13.5692 87.6712
lradius 89.2434
lwrist -18.3825
lhand 15.477 35.2452
lfingers 7.12502
lthumb 40.3005 60.3799
rfemur -55.3687 2.92856 16.6183
rtibia 46.1163
rfoot -19.9647 -6.05619
rtoes -21.0381
lfemur -55.4093 -5.07886 -12.6139
ltibia 45.3659
lfoot -17.6399 3.19774
ltoes -25.4318
1927
root -0.31275 16.5373 -1.67826 28.2625 0.438813 0.634133
lowerback 16.912 0.245155 -3.11588
upperback 0.387773 -0.223975 0.589706
thorax -9.0792 0.0443242 2.46428
lowerneck -3.20443 -10.6094 -18.9366
upperneck -25.9372 -9.97829 32.0417
head -3.57627 -5.80765 14.4415
rclavicle 6.32073e-015 1.72073e-015
rhumerus 1.73284 14.755 -91.1955
rradius 97.3648
rwrist 27.4834
rhand 17.8411 0.441569
rfingers 7.12502
rthumb 42.5188 -23.9722
lclavicle 6.32073e-015 1.72073e-015
lhumerus 10.0663 -13.4087 88.1918
lradius 87.8348
lwrist -18.5332
lhand 15.5283 35.4175
lfingers 7.12502
lthumb 40.3487 60.5374
rfemur -54.2491 3.2305 16.6375
rtibia 45.1883
rfoot -19.7231 -6.2554
rtoes -20.5921
lfemur -54.3386 -5.28599 -12.4531
ltibia 44.5178
lfoot -17.514 3.32096
ltoes -24.9818
1928
root -0.309482 16.5885 -1.63681 27.8952 0.466473 0.718436
lowerback 16.6472 0.134557 -3.05561
upperback 0.185934 -0.365037 0.456974
thorax -9.14338 -0.0253766 2.31896
lowerneck -3.3797 -10.7478 -18.7847
upperneck -26.1751 -10.1005 32.1065
head -3.58441 -5.8787 14.4284
rclavicle -1.98785e-016 8.17502e-015
rhumerus 1.0233 14.2336 -91.5076
rradius 97.3489
rwrist 27.5571
rhand 17.979 0.216483
rfingers 7.12502
rthumb 42.648 -24.1527
lclavicle -1.98785e-016 8.17502e-015
lhumerus 8.8244 -13.2024 88.5918
lradius 86.4568
lwrist -18.8456
lhand 15.1882 35.7275
lfingers 7.12502
lthumb 40.0288 60.9449
rfemur -53.1206 3.47739 16.4243
rtibia 44.2395
rfoot -19.4644 -6.44952
rtoes -20.0836
lfemur -53.2683 -5.54455 -12.5376
ltibia 43.6434
lfoot -17.3339 3.39075
ltoes -24.2258
1929
root -0.302658 16.6379 -1.59628 27.5406 0.444575 0.756268
lowerback 16.4037 0.0606488 -2.95535
upperback -0.0153319 -0.452073 0.31635
thorax -9.22305 -0.0714297 2.1293
lowerneck -3.5195 -10.9237 -18.5827
upperneck -26.4235 -10.2782 32.1827
head -3.58951 -5.98615 14.4048
rclavicle -2.88238e-015 4.47266e-015
rhumerus 0.507365 13.5746 -91.7703
rradius 97.524
rwrist 27.6919
rhand 18.2915 -0.0276608
rfingers 7.12502
rthumb 42.9403 -24.2947
lclavicle -2.88238e-015 4.47266e-015
lhumerus 7.71208 -13.0722 88.9174
lradius 85.1696
lwrist -19.2873
lhand 14.7572 36.0193
lfingers 7.12502
lthumb 39.623 61.358
rfemur -52.0197 3.75133 16.2409
rtibia 43.261
rfoot -19.1563 -6.6088
rtoes -20.1937
lfemur -52.215 -5.80443 -12.5831
ltibia 42.7525
lfoot -16.9646 3.77176
ltoes -25.786
1930
root -0.294711 16.6872 -1.55606 26.9639 0.482419 0.555255
lowerback 16.351 -0.0309107 -2.69027
upperback -0.122416 -0.524723 0.294951
thorax -9.30856 -0.116389 1.97301
lowerneck -3.68492 -11.0551 -18.4972
upperneck -26.5985 -10.4008 32.2899
head -3.57144 -6.05476 14.4155
rclavicle -2.88238e-015 -3.67752e-015
rhumerus 0.383547 12.9903 -91.8424
rradius 97.7184
rwrist 27.6263
rhand 18.8846 -0.0703062
rfingers 7.12502
rthumb 43.4946 -24.1391
lclavicle -2.88238e-015 -3.67752e-015
lhumerus 6.64735 -12.8198 89.1759
lradius 84.0832
lwrist -19.6971
lhand 14.1373 36.1354
lfingers 7.12502
lthumb 39.0389 61.6443
rfemur -50.6546 4.0763 16.3736
rtibia 42.2509
rfoot -18.8848 -6.84126
rtoes -20.5738
lfemur -50.921 -6.04688 -12.3777
ltibia 41.8535
lfoot -16.6177 4.20953
ltoes -27.5724
1931
root -0.29032 16.7365 -1.51759 26.3329 0.539256 0.389163
lowerback 16.3079 -0.159386 -2.54159
upperback -0.21245 -0.663861 0.321391
thorax -9.37664 -0.187065 1.95064
lowerneck -3.77233 -11.132 -18.558
upperneck -26.6959 -10.4742 32.4105
head -3.54507 -6.08999 14.4661
rclavicle 2.08724e-015 -8.54774e-015
rhumerus 0.534537 12.6367 -91.7269
rradius 97.728
rwrist 27.2923
rhand 19.4481 -0.0436492
rfingers 7.12502
rthumb 44.0206 -23.9188
lclavicle 2.08724e-015 -8.54774e-015
lhumerus 5.54729 -12.3833 89.416
lradius 83.1691
lwrist -19.9525
lhand 13.2452 35.9907
lfingers 7.12502
lthumb 38.1974 61.736
rfemur -49.2216 4.38637 16.493
rtibia 41.2339
rfoot -18.6859 -6.97349
rtoes -20.6136
lfemur -49.5774 -6.26476 -12.2274
ltibia 40.9772
lfoot -16.6491 4.17633
ltoes -26.0625
1932
root -0.289913 16.784 -1.48235 25.8422 0.475804 0.390956
lowerback 16.0898 -0.277201 -2.7104
upperback -0.330944 -0.847947 0.316147
thorax -9.37146 -0.26606 2.08256
lowerneck -3.89071 -11.1972 -18.5678
upperneck -26.6867 -10.541 32.5472
head -3.48532 -6.12359 14.501
rclavicle 8.24956e-015 -1.59028e-015
rhumerus 0.848855 12.5201 -91.5267
rradius 97.7412
rwrist 26.9735
rhand 19.3269 -0.239393
rfingers 7.12502
rthumb 43.9075 -24.1567
lclavicle 8.24956e-015 -1.59028e-015
lhumerus 4.55314 -11.8344 89.5892
lradius 82.4152
lwrist -20.2568
lhand 12.6902 35.9619
lfingers 7.12502
lthumb 37.6732 61.8493
rfemur -47.9827 4.77634 16.3643
rtibia 40.2276
rfoot -18.3725 -7.18114
rtoes -20.8507
lfemur -48.3985 -6.4536 -12.2671
ltibia 40.1534
lfoot -16.7526 4.12043
ltoes -23.9625
1933
root -0.286698 16.8258 -1.45018 25.4217 0.396043 0.364165
lowerback 15.8335 -0.381862 -2.75269
upperback -0.440835 -0.994974 0.250828
thorax -9.3389 -0.335724 2.06724
lowerneck -4.17632 -11.3595 -18.4435
upperneck -26.5477 -10.7466 32.6451
head -3.33527 -6.22119 14.4432
rclavicle -1.8487e-014 -7.35503e-015
rhumerus 1.33129 12.3526 -91.2928
rradius 97.8458
rwrist 26.6976
rhand 18.5399 -0.516895
rfingers 7.12502
rthumb 43.1726 -24.7016
lclavicle -1.8487e-014 -7.35503e-015
lhumerus 3.79648 -11.3338 89.6281
lradius 81.8944
lwrist -20.7919
lhand 13.0295 36.3754
lfingers 7.12502
lthumb 37.9937 62.1764
rfemur -46.8644 5.15696 16.2671
rtibia 39.2514
rfoot -18.0686 -7.38252
rtoes -20.936
lfemur -47.3415 -6.64035 -12.2681
ltibia 39.3746
lfoot -16.5812 4.29091
ltoes -23.6311
